<svg xmlns="http://www.w3.org/2000/svg" xmlns:xlink="http://www.w3.org/1999/xlink" width="500" height="500" viewBox="0 0 500 500"><defs><style>.a{fill:#fff;}.a,.c,.m,.n,.o,.q{stroke:#707070;}.b{clip-path:url(#a);}.c{fill:#ffb27e;}.c,.m,.n,.o{stroke-width:0.5px;}.d{fill:#f5824b;}.e{fill:#ffd0b0;}.f{fill:#4d4d4d;}.g{fill:#3c373d;}.h{fill:#666;}.i{fill:#f8f1f1;}.j{fill:#e8e8e8;}.k{fill:#d1caca;}.l{fill:#b8b5b5;}.m{fill:#e6e6e6;}.m,.n,.o{stroke-linecap:round;}.n{fill:#cfcbcb;}.o{fill:#fd0100;}.p{fill:#c80000;}.q{fill:rgba(0,0,0,0.54);}.r{stroke:none;}.s{fill:none;}</style><clipPath id="a"><rect class="a" width="500" height="500"/></clipPath></defs><g class="b"><path class="c" d="M429.586,330.177,407.1,319.527a25.609,25.609,0,0,0-7.1-16.568,84,84,0,0,0-14.859-11.669l-35.013-20.925L288.182,250.89l-52.208,62.36,33.355,19.267-5.387,7.666,38.12,29.626,45.372,9.323s25.69,4.558,36.463-6.008c.207-.207,21.754,10.152,21.754,10.152Z"/><path class="d" d="M422.5,343.933,396.722,333.7s8.619-23.97-11.312-42.285c.269.269,22.893,12.389,21.546,28.01.269,0,21.277,10.234,21.277,10.234Z"/><path class="d" d="M406.822,375.162l-24.1-11.3s-9.427,15.352-44.439,12.928c-.269-.539,25.856,9.965,45.517-3.5,0,.808,21.008,9.7,21.008,9.7Z" transform="translate(1)"/><path class="d" d="M342.478,286.859c.159.159,17.212,11,17.212,11s-.637,11.634,10.2,26.933c-.159.159-19.761,4.3-30.6,21.2,0-.319-33.308-.8-33.308-.8l-18.008-12.431s-4.781-4.143-9.881-3.187a28.749,28.749,0,0,0-8.765,3.187,15.308,15.308,0,0,1,8.765-5.737c5.578-1.116,14.821,4.94,14.821,4.94l15.459,9.4s3.665-3.984,3.347-13.546c0,0,10.518-3.984,9.562-17.53-.159-.478,11.315-2.391,11.793-16.574C333.076,294.031,338.335,292.278,342.478,286.859Z"/><path class="d" d="M324.811,280.1l-6.195,4.309L285.489,269.06Z"/><path class="d" d="M305.15,298.686l-2.693,4.04L275.524,289.26l1.347-2.963Z"/><path class="d" d="M292.761,317.083l-1.885,4.765L259.9,304.611v-2.963Z"/><path class="e" d="M273.908,334.238l-6.733,8.349,14.274,11.043s6.195-5.925,2.155-11.043A38.077,38.077,0,0,0,273.908,334.238Z"/><path class="d" d="M350.128,270.676l-10.773,1.616-27.472-13.736Z"/><path class="f" d="M500,439.4l-66.192-37.8,29.761-68.625L500,345.926Z"/><path class="g" d="M454.816,352.929s11.2,39.564,45.517,61.272c.35.7,0,24.859,0,24.859L433.458,401.6Z"/><path class="h" d="M462.519,332.971l-32.562-14.005L400.9,386.891,433.108,401.6Z" transform="translate(2)"/><path class="f" d="M417.7,348.377a68.835,68.835,0,0,0,22.408,37.464c-.35.35-6.652,16.106-6.652,16.106L401.6,387.241Z" transform="translate(2)"/><g transform="translate(345.82 29.39) rotate(30)"><g transform="translate(0 56.124)"><path class="c" d="M429.586,303.989,407.1,314.64a25.609,25.609,0,0,1-7.1,16.568,84,84,0,0,1-14.859,11.669L350.128,363.8l-61.946,19.475-52.208-62.36,33.355-19.267-5.387-7.666,38.12-29.626,45.372-9.323s25.69-4.558,36.463,6.008c.207.207,21.754-10.152,21.754-10.152Z" transform="translate(-235.974 -250.89)"/><path class="d" d="M422.5,291.414l-25.778,10.235s8.619,23.97-11.312,42.285c.269-.269,22.893-12.389,21.546-28.01.269,0,21.277-10.234,21.277-10.234Z" transform="translate(-235.974 -252.072)"/><path class="d" d="M406.822,371.688l-24.1,11.3s-9.427-15.352-44.439-12.928c-.269.539,25.856-9.965,45.517,3.5,0-.808,21.008-9.7,21.008-9.7Z" transform="translate(-234.974 -363.574)"/><path class="d" d="M342.478,345.984c.159-.159,17.212-11,17.212-11s-.637-11.634,10.2-26.933c-.159-.159-19.761-4.3-30.6-21.2,0,.319-33.308.8-33.308.8l-18.008,12.431s-4.781,4.143-9.881,3.187a28.749,28.749,0,0,1-8.765-3.187,15.308,15.308,0,0,0,8.765,5.737c5.578,1.116,14.821-4.94,14.821-4.94l15.459-9.4s3.665,3.984,3.347,13.546c0,0,10.518,3.984,9.562,17.53-.159.478,11.315,2.391,11.793,16.574C333.076,338.813,338.335,340.566,342.478,345.984Z" transform="translate(-235.974 -249.568)"/><path class="d" d="M324.811,273.369l-6.195-4.309-33.128,15.352Z" transform="translate(-235.974 -170.196)"/><path class="d" d="M305.15,290.337l-2.693-4.04-26.933,13.466,1.347,2.963Z" transform="translate(-235.974 -205.747)"/><path class="d" d="M292.761,306.414l-1.885-4.765L259.9,318.886v2.963Z" transform="translate(-235.974 -240.221)"/><path class="e" d="M273.908,353.629l-6.733-8.349,14.274-11.043s6.195,5.925,2.155,11.043A38.077,38.077,0,0,1,273.908,353.629Z" transform="translate(-235.974 -304.591)"/><path class="d" d="M350.128,260.172l-10.773-1.616-27.472,13.736Z" transform="translate(-235.974 -147.572)"/></g><g transform="translate(166.923)"><path class="f" d="M500,332.971l-66.192,37.8L463.569,439.4,500,426.445Z" transform="translate(-402.896 -332.971)"/><path class="g" d="M454.816,439.06s11.2-39.564,45.517-61.272c.35-.7,0-24.859,0-24.859l-66.874,37.464Z" transform="translate(-402.896 -352.589)"/><path class="h" d="M462.519,387.591,429.957,401.6,400.9,333.672l32.212-14.705Z" transform="translate(-400.896 -281.163)"/><path class="f" d="M417.7,401.947a68.835,68.835,0,0,1,22.408-37.464c-.35-.35-6.652-16.106-6.652-16.106L401.6,363.082Z" transform="translate(-400.896 -310.924)"/></g></g><g transform="translate(285.488 197.4) rotate(180)"><g transform="translate(0 0)"><path class="c" d="M193.612,79.287,171.127,68.636a25.609,25.609,0,0,0-7.1-16.568A84,84,0,0,0,149.167,40.4L114.154,19.475,52.208,0,0,62.36,33.355,81.627l-5.387,7.666,38.12,29.626,45.372,9.323s25.69,4.558,36.463-6.008c.207-.207,21.754,10.152,21.754,10.152Z" transform="translate(0 0)"/><path class="d" d="M37.09,52.519,11.312,42.285S19.93,18.314,0,0C.269.269,22.893,12.389,21.546,28.01c.269,0,21.277,10.234,21.277,10.234Z" transform="translate(149.436 40.524)"/><path class="d" d="M68.546,11.3,44.441,0S35.015,15.352,0,12.928c-.269-.539,25.856,9.965,45.517-3.5,0,.808,21.008,9.7,21.008,9.7Z" transform="translate(103.302 112.973)"/><path class="d" d="M73.149,0c.159.159,17.212,11,17.212,11s-.637,11.634,10.2,26.933c-.159.159-19.761,4.3-30.6,21.2,0-.319-33.308-.8-33.308-.8L18.646,45.9s-4.781-4.143-9.881-3.187A28.749,28.749,0,0,0,0,45.9,15.308,15.308,0,0,1,8.765,40.16c5.578-1.116,14.821,4.94,14.821,4.94l15.459,9.4s3.665-3.984,3.347-13.546c0,0,10.518-3.984,9.562-17.53-.159-.478,11.315-2.391,11.793-16.574C63.747,7.172,69.006,5.418,73.149,0Z" transform="translate(33.355 35.969)"/><path class="d" d="M39.322,11.043l-6.195,4.309L0,0Z" transform="translate(49.515 18.17)"/><path class="d" d="M29.626,12.389l-2.693,4.04L0,2.963,1.347,0Z" transform="translate(39.55 35.407)"/><path class="d" d="M32.858,15.434,30.973,20.2,0,2.963V0Z" transform="translate(23.929 50.758)"/><path class="e" d="M6.733,0,0,8.349,14.274,19.392s6.195-5.925,2.155-11.043A38.077,38.077,0,0,0,6.733,0Z" transform="translate(31.201 83.347)"/><path class="d" d="M38.245,12.12,27.472,13.736,0,0Z" transform="translate(75.91 7.666)"/></g><g transform="translate(166.923 68.076)"><path class="i" d="M92.771,121.244,0,68.625,29.761,0l63.01,28.595Z" transform="translate(30.912 14.005)"/><path class="j" d="M21.358,0S27.135,47.421,89.35,70.045c.35.7,1.347,28.818,1.347,28.818L0,48.668Z" transform="translate(30.562 33.962)"/><path class="k" d="M61.622,14.005,29.061,0,0,67.925,32.212,82.63Z" transform="translate(0 0)"/><path class="l" d="M16.106,0A68.835,68.835,0,0,0,38.514,37.464c-.35.35-6.652,16.106-6.652,16.106L0,38.864Z" transform="translate(0.7 29.411)"/></g></g><g transform="translate(257.301 312.233) rotate(167)"><g transform="translate(0 0)"><path class="c" d="M193.612,79.287,171.127,68.636a25.609,25.609,0,0,0-7.1-16.568A84,84,0,0,0,149.167,40.4L114.154,19.475,52.208,0,0,62.36,33.355,81.627l-5.387,7.666,38.12,29.626,45.372,9.323s25.69,4.558,36.463-6.008c.207-.207,21.754,10.152,21.754,10.152Z" transform="translate(0 0)"/><path class="d" d="M37.09,52.519,11.312,42.285S19.93,18.314,0,0C.269.269,22.893,12.389,21.546,28.01c.269,0,21.277,10.234,21.277,10.234Z" transform="translate(149.436 40.524)"/><path class="d" d="M68.546,11.3,44.441,0S35.015,15.352,0,12.928c-.269-.539,25.856,9.965,45.517-3.5,0,.808,21.008,9.7,21.008,9.7Z" transform="translate(103.302 112.973)"/><path class="d" d="M73.149,0c.159.159,17.212,11,17.212,11s-.637,11.634,10.2,26.933c-.159.159-19.761,4.3-30.6,21.2,0-.319-33.308-.8-33.308-.8L18.646,45.9s-4.781-4.143-9.881-3.187A28.749,28.749,0,0,0,0,45.9,15.308,15.308,0,0,1,8.765,40.16c5.578-1.116,14.821,4.94,14.821,4.94l15.459,9.4s3.665-3.984,3.347-13.546c0,0,10.518-3.984,9.562-17.53-.159-.478,11.315-2.391,11.793-16.574C63.747,7.172,69.006,5.418,73.149,0Z" transform="translate(33.355 35.969)"/><path class="d" d="M39.322,11.043l-6.195,4.309L0,0Z" transform="translate(49.515 18.17)"/><path class="d" d="M29.626,12.389l-2.693,4.04L0,2.963,1.347,0Z" transform="translate(39.55 35.407)"/><path class="d" d="M32.858,15.434,30.973,20.2,0,2.963V0Z" transform="translate(23.929 50.758)"/><path class="e" d="M6.733,0,0,8.349,14.274,19.392s6.195-5.925,2.155-11.043A38.077,38.077,0,0,0,6.733,0Z" transform="translate(31.201 83.347)"/><path class="d" d="M38.245,12.12,27.472,13.736,0,0Z" transform="translate(75.91 7.666)"/></g><g transform="translate(166.923 68.076)"><path class="i" d="M66.192,106.429,0,68.625,29.761,0,66.192,12.955Z" transform="translate(30.912 14.005)"/><path class="j" d="M21.358,0s11.2,39.564,45.517,61.272c.35.7,0,24.859,0,24.859L0,48.668Z" transform="translate(30.562 33.962)"/><path class="k" d="M61.622,14.005,29.061,0,0,67.925,32.212,82.63Z" transform="translate(0 0)"/><path class="l" d="M16.106,0A68.835,68.835,0,0,0,38.514,37.464c-.35.35-6.652,16.106-6.652,16.106L0,38.864Z" transform="translate(0.7 29.411)"/></g></g><path class="m" d="M184.49,317.539,168.869,370.6l5.117,1.885,16.429-53.6Z"/><path class="m" d="M184.49,317.539,168.869,370.6l5.117,1.885,16.429-53.6Z" transform="translate(17.631 6)"/><path class="n" d="M199.3,322.926l11.312,3.771,3.232-11.581,4.04,1.347-8.543,28.014s-.377,1.226,1.271,2.452c3.772,2.546,10.154,4.075,12.591,4.338a3.166,3.166,0,0,0,3.3-1.676l8.619-28.549h2.424s3.232-11.851,14.005-16.968,23.7-5.925,29.626-19.122,8.761-45.9,18.821-73.116,17.269-44.312,19.154-58.317-23.162-47.941-57.1-56.559-64.37-1.885-78.105,14.005-13.2,51.442-21.277,77.567-18.314,36.629-18.853,57.636,22.893,29.9,17.506,54.135a11.542,11.542,0,0,0,2.1.441l-7.839,27.424a4.511,4.511,0,0,0,1.45,3.936c1.865,1.657,11.188,3.729,11.188,3.729a4.852,4.852,0,0,0,3.936-1.657c1.45-1.865,8.287-28.8,8.287-28.8l4.144,1.036L181.486,317.6l10.359,3.44,3.729-11.105,6.837,2.072Z"/><path class="o" d="M179.79,291.761s1.5-7.412,6.521-6.575,2.623,9.653,2.623,9.653l8.872,2.4s2.065-8.314,7.254-6.752,1.841,9.653,1.841,9.653c0-.056,8.769,2.544,8.769,2.544s1.657-8.494,7.458-6.837,2.486,8.909,2.486,8.909l8.08,2.486s5.594-6.988,16.781-12.4,15.953-6.036,23.411-16.188,6.5-37.869,16.964-70.186,23.213-51.434,18.207-61.447-11.834-20.482-50.068-31.862-49.613-10.924-64.634-2.731c-13.854,7.557-13.655,40.055-19.117,65.544s-22.3,48.7-22.3,65.544,8.193,18.207,13.655,29.131,5.007,17.843,5.007,17.843Z"/><path class="p" d="M205.06,290.487c5.189,1.562,1.841,9.653,1.841,9.653,0-.056,8.769,2.544,8.769,2.544s1.657-8.494,7.458-6.837,2.486,8.909,2.486,8.909l8.08,2.486s5.594-6.988,16.781-12.4,15.953-6.036,23.411-16.188,6.5-37.869,16.964-70.186,23.213-51.434,18.207-61.447-11.834-20.482-50.068-31.862c8.608,2.69,22.758,20.938,20.938,43.241-.968,10.124-13.7,30.3-18.207,46.427-6.643,23.776-6.231,44.036-11.245,52.8C236.32,282.366,203.778,290.1,205.06,290.487Z"/></g><g class="q"><rect class="r" width="500" height="500"/><rect class="s" x="0.5" y="0.5" width="499" height="499"/></g></svg>