<svg xmlns="http://www.w3.org/2000/svg" xmlns:xlink="http://www.w3.org/1999/xlink" width="1847" height="1080" viewBox="0 0 1847 1080"><defs><style>.a{fill:#fff;}.a,.c,.m,.n,.o{stroke:#707070;}.b{clip-path:url(#a);}.c{fill:#ffb27e;}.c,.m,.n,.o{stroke-width:0.5px;}.d{fill:#f5824b;}.e{fill:#ffd0b0;}.f{fill:#4d4d4d;}.g{fill:#3c373d;}.h{fill:#666;}.i{fill:#f8f1f1;}.j{fill:#e8e8e8;}.k{fill:#d1caca;}.l{fill:#b8b5b5;}.m{fill:#e6e6e6;}.m,.n,.o{stroke-linecap:round;}.n{fill:#cfcbcb;}.o{fill:#fd0100;}.p{fill:#c80000;}.q{fill:#707070;font-size:50px;}.q,.r{font-family:SegoeUI-Bold, Segoe UI;font-weight:700;}.r{fill:#f7464c;font-size:70px;}</style><clipPath id="a"><rect class="a" width="1060" height="1080"/></clipPath></defs><g transform="translate(-62 -54)"><g class="b" transform="translate(62 54)"><path class="c" d="M697.576,448.984l-53.624-26.6a65.536,65.536,0,0,0-16.926-41.4A201.975,201.975,0,0,0,591.6,351.835l-83.465-52.288L360.447,250.89l-124.473,155.8L315.5,454.831l-12.845,19.152,90.883,74.01,108.174,23.294s61.248,11.387,86.934-15.011c.494-.517,51.864,25.364,51.864,25.364Z" transform="translate(256.004 358.996)"/><path class="d" d="M473.838,422.63l-61.46-25.568s20.548-59.886-26.969-105.648c.641.672,54.581,30.954,51.369,69.982.641,0,50.728,25.57,50.728,25.57Z" transform="translate(462.846 419.72)"/><path class="d" d="M501.694,392.093l-57.457-28.231s-22.474,38.355-105.951,32.3c-.641-1.347,61.643,24.9,108.519-8.757,0,2.02,50.087,24.234,50.087,24.234Z" transform="translate(399.997 528.278)"/><path class="d" d="M443.735,286.859c.379.4,41.036,27.483,41.036,27.483s-1.52,29.067,24.319,67.29c-.378.4-47.112,10.734-72.954,52.968,0-.8-79.412-2-79.412-2l-42.937-31.059s-11.4-10.35-23.559-7.963a66.566,66.566,0,0,0-20.9,7.963,36.412,36.412,0,0,1,20.9-14.333c13.3-2.788,35.336,12.342,35.336,12.342l36.855,23.486s8.737-9.955,7.98-33.844c0,0,25.076-9.955,22.8-43.785-.379-1.195,26.977-5.975,28.116-41.409C421.318,304.771,433.857,300.4,443.735,286.859Z" transform="translate(302.166 412.893)"/><path class="d" d="M379.239,296.642l-14.771,10.765L285.489,269.06Z" transform="translate(324.541 386.224)"/><path class="d" d="M346.156,317.251l-6.421,10.093L275.524,293.7l3.212-7.4Z" transform="translate(310.747 412.051)"/><path class="d" d="M338.247,340.212l-4.494,11.907L259.9,309.052v-7.4Z" transform="translate(289.122 435.056)"/><path class="e" d="M283.228,334.238,267.175,355.1l34.031,27.59s14.771-14.8,5.138-27.59A92.128,92.128,0,0,0,283.228,334.238Z" transform="translate(299.192 483.889)"/><path class="d" d="M403.064,288.838l-25.683,4.037-65.5-34.319Z" transform="translate(361.075 370.482)"/><path class="f" d="M591.62,598.877,433.808,504.434l70.954-171.467,86.858,32.358Z" transform="translate(529.837 481.982)"/><path class="g" d="M484.378,352.929s26.7,98.849,108.519,153.086c.847,1.749,0,62.109,0,62.109L433.458,474.532Z" transform="translate(529.354 511.895)"/><path class="h" d="M547.808,353.957l-77.632-34.991L400.9,488.673l76.79,36.751Z" transform="translate(489.057 461.006)"/><path class="f" d="M439.984,348.377a173.688,173.688,0,0,0,53.423,93.6c-.847.876-15.859,40.24-15.859,40.24L401.6,445.478Z" transform="translate(490.023 505.074)"/><g transform="translate(752.742 70.916) rotate(30)"><g transform="translate(0 133.925)"><path class="c" d="M466.3,132.36l-53.725,25.195a61.415,61.415,0,0,1-16.33,40.567,191.725,191.725,0,0,1-35.274,28.084L277.531,276.15,129.049,321.189,0,164.583l79.522-45.937L66.146,99.437l90.507-71.287L265.664,7.367s61.756-9.986,88.273,16.644C354.445,24.534,405.914,0,405.914,0Z" transform="translate(0 0)"/><path class="d" d="M86.889,0,25.2,24S47.183,83.632,0,127.883c.636-.65,54.621-29.466,50.6-68.115.65,0,50.83-24.223,50.83-24.223Z" transform="translate(361.629 98.03)"/><path class="d" d="M165.452,19.432,107.865,46.141S84.36,7.765,0,12.02C-.617,13.339,61.894-11.313,110,22.918,109.958,20.924,160.2,0,160.2,0Z" transform="translate(246.106 0.743)"/><path class="d" d="M178.764,146.207c.376-.384,40.983-26.316,40.983-26.316s-2.113-28.765,23.277-66.016c-.393-.4-47.889-11.6-74.878-53.875.017.788-80.324.328-80.324.328L44.988,30.152s-11.33,10-23.683,7.381A71.123,71.123,0,0,1,0,29.229a38.926,38.926,0,0,0,21.432,14.6c13.514,3.034,35.514-11.469,35.514-11.469L93.779,9.9s9.039,10.022,8.757,33.615c0,0,25.573,10.361,23.938,43.771-.359,1.172,27.418,6.466,29.274,41.525C155.721,128.033,168.5,132.62,178.764,146.207Z" transform="translate(79.508 88.827)"/><path class="d" d="M94.329,10.949,79.183,0,0,36.279Z" transform="translate(121.651 239.901)"/><path class="d" d="M71.013,10.11,64.3,0,0,31.926,3.39,39.31Z" transform="translate(96.609 193.868)"/><path class="d" d="M78.674,11.861,73.889,0,0,41.039l.147,7.319Z" transform="translate(58.149 146.066)"/><path class="e" d="M16.661,47.522,0,26.568,33.9,0s15.254,14.941,5.746,27.381a87.126,87.126,0,0,1-22.98,20.141Z" transform="translate(73.827 67.101)"/><path class="d" d="M91.674,4.52,65.6,0,0,32.562Z" transform="translate(185.854 270.867)"/></g><g transform="translate(399.106 0)"><path class="f" d="M157.834,0,0,90.084,75.2,261.062l87.256-30.195Z" transform="translate(73.844 0)"/><path class="g" d="M53.937,210.478S79,113.3,160.716,61.4c.811-1.712-1.232-61.4-1.232-61.4L0,89.219Z" transform="translate(73.002 0.859)"/><path class="h" d="M151.337,170.95,73.468,203.939,0,34.726,76.991,0Z" transform="translate(0 90.16)"/><path class="f" d="M40.768,131.535A162.3,162.3,0,0,1,92.976,40.113C92.115,39.231,76.129,0,76.129,0L0,34.745Z" transform="translate(1.672 89.307)"/></g></g><g transform="translate(610.027 476.243) rotate(180)"><path class="c" d="M461.6,198.094,408,171.484a65.536,65.536,0,0,0-16.926-41.4,201.95,201.95,0,0,0-35.423-29.152L272.161,48.658,124.473,0,0,155.8l79.525,48.149L66.666,223.094l90.883,74.01L265.723,320.4s61.248,11.387,86.934-15.011c.494-.517,51.864,25.364,51.864,25.364Z"/><path class="d" d="M88.417,131.216,26.969,105.649S47.516,45.762,0,0C.641.672,54.581,30.954,51.369,69.982c.641,0,50.728,25.57,50.728,25.57Z" transform="translate(356.279 101.247)"/><path class="d" d="M163.435,28.231,105.964,0S83.49,38.356,0,32.3c-.641-1.347,61.643,24.9,108.519-8.757,0,2.02,50.087,24.234,50.087,24.234Z" transform="translate(246.278 282.257)"/><path class="d" d="M174.4,0c.379.4,41.036,27.483,41.036,27.483s-1.52,29.067,24.319,67.29c-.379.4-47.112,10.734-72.954,52.968,0-.8-79.412-2-79.412-2L44.451,114.668s-11.4-10.342-23.548-7.952A66.567,66.567,0,0,0,0,114.688a36.415,36.415,0,0,1,20.9-14.35C34.2,97.55,56.24,112.68,56.24,112.68l36.85,23.477s8.737-9.955,7.98-33.844c0,0,25.076-9.955,22.8-43.785-.379-1.2,26.98-5.986,28.11-41.412C151.976,17.918,164.521,13.537,174.4,0Z" transform="translate(79.525 89.866)"/><path class="d" d="M93.75,27.59,78.979,38.356,0,0Z" transform="translate(118.052 45.398)"/><path class="d" d="M70.621,30.954,64.2,41.048,0,7.4,3.212,0Z" transform="translate(94.293 88.462)"/><path class="d" d="M78.338,38.562,73.844,50.468,0,7.4V0Z" transform="translate(57.05 126.815)"/><path class="e" d="M16.053,0,0,20.859l34.031,27.59s14.771-14.8,5.138-27.59A92.123,92.123,0,0,0,16.053,0Z" transform="translate(74.389 208.238)"/><path class="d" d="M91.183,30.282,65.5,34.319,0,0Z" transform="translate(180.981 19.152)"/><g transform="translate(397.97 170.083)"><path class="i" d="M221.184,302.92,0,171.467,70.954,0l150.23,71.443Z" transform="translate(73.7 34.991)"/><path class="j" d="M50.92,0s13.768,118.479,162.1,175c.847,1.749,3.212,72,3.212,72L0,121.595Z" transform="translate(72.864 84.852)"/><path class="k" d="M146.917,34.991,69.285,0,0,169.707l76.8,36.74Z"/><path class="l" d="M38.4,0A173.688,173.688,0,0,0,91.824,93.6c-.847.876-15.859,40.24-15.859,40.24L0,97.1Z" transform="translate(1.669 73.482)"/></g></g><g transform="translate(544.641 764.073) rotate(167)"><g transform="translate(0 0)"><path class="c" d="M462.292,194.094,408.82,168.106a63.875,63.875,0,0,0-16.553-41.121,196.249,196.249,0,0,0-35.223-28.711L273.9,46.994,126.335,0,0,156.75l79.245,47.192L66.166,223.184l90.363,72.881,108.191,22.1s61.285,10.717,87.287-15.89c.5-.52,51.737,24.76,51.737,24.76Z" transform="translate(0 0)"/><path class="d" d="M87.327,129.982,25.988,105.118S47.175,45.152,0,0C.636.664,54.4,30.308,50.793,69.279c.644,0,50.6,24.977,50.6,24.977Z" transform="translate(357.691 98.578)"/><path class="d" d="M163.867,27.562,106.537,0S83.628,38.5,0,33.339C-.625,32,61.549,57.53,108.876,23.474c-.02,2.014,49.966,23.652,49.966,23.652Z" transform="translate(245.289 279.212)"/><path class="d" d="M175.973,0c.376.393,40.861,26.988,40.861,26.988s-1.814,29.017,23.7,66.881c-.384.4-47.336,11.215-73.663,53.612,0-.794-79.584-1.161-79.584-1.161L44.562,115.778s-11.322-10.206-23.536-7.7A68.3,68.3,0,0,0,0,116.239a37.525,37.525,0,0,1,21.09-14.52C34.449,98.8,56.4,113.663,56.4,113.663l36.723,23.045s8.836-10.017,8.308-33.853c0,0,25.237-10.195,23.291-43.935-.367-1.186,27.1-6.243,28.6-41.61C153.32,18.113,165.933,13.61,175.973,0Z" transform="translate(79.228 88.298)"/><path class="d" d="M93.7,26.553l-14.912,10.9L0,0Z" transform="translate(119.445 45.358)"/><path class="d" d="M70.567,30.172,64.03,40.31,0,7.421,3.294,0Z" transform="translate(95.123 88.541)"/><path class="d" d="M78.217,37.649,73.59,49.576,0,7.387.073,0Z" transform="translate(57.406 127.23)"/><path class="e" d="M16.311,0,0,20.98,33.824,48.149S48.8,33.22,39.265,20.57A89.437,89.437,0,0,0,16.311,0Z" transform="translate(73.833 208.114)"/><path class="d" d="M91.1,29.254l-25.788,4.3L0,0Z" transform="translate(182.789 18.514)"/></g><g transform="translate(397.097 166.089)"><path class="i" d="M157.25,264.379,0,171.806,72.847,0l86.745,31.381Z" transform="translate(73.502 34.118)"/><path class="j" d="M52.265,0S78.042,98.338,159.512,151.592c.819,1.737-.621,61.965-.621,61.965L0,121.846Z" transform="translate(72.666 84.084)"/><path class="k" d="M148.617,34.1,71.149,0,0,170.043,76.609,205.89Z" transform="translate(0 0)"/><path class="l" d="M39.466,0A168.7,168.7,0,0,0,92.081,92.824c-.847.881-16.3,40.313-16.3,40.313L0,97.279Z" transform="translate(1.655 73.618)"/></g></g><path class="m" d="M206.112,317.539,168.869,450.108l12.2,4.709L220.238,320.9Z" transform="translate(163.119 458.865)"/><path class="m" d="M206.112,317.539,168.869,450.108l12.2,4.709L220.238,320.9Z" transform="translate(205.155 473.856)"/><path class="n" d="M276.117,667.188l26.969,9.421,7.706-28.935,9.633,3.364-20.367,69.991s-.9,3.062,3.031,6.127c8.994,6.362,24.209,10.169,30.019,10.839a7.46,7.46,0,0,0,7.867-4.186l20.548-71.327h5.78s7.706-29.61,33.389-42.4,56.5-14.8,70.621-47.776S492.2,457.622,516.186,389.634s41.172-110.711,45.666-145.7S506.629,124.16,425.718,102.623,272.25,97.914,239.5,137.614,208.031,266.144,188.774,331.4s-43.663,91.524-44.949,144,54.581,74.7,41.737,135.253a26.425,26.425,0,0,0,5.006,1.1L171.878,680.27a11.582,11.582,0,0,0,3.458,9.833c4.446,4.141,26.675,9.322,26.675,9.322a11.322,11.322,0,0,0,9.384-4.141c3.458-4.661,19.757-71.954,19.757-71.954l9.887,2.588-7.4,27.966,24.7,8.6,8.89-27.746,16.3,5.178Z" transform="translate(128.423 122.677)"/><path class="o" d="M216.958,569.468s3.576-18.52,15.537-16.426,6.254,24.118,6.254,24.118l21.152,6s4.924-20.771,17.294-16.87,4.39,24.118,4.39,24.118c0-.141,20.9,6.356,20.9,6.356s3.955-21.223,17.782-17.082,5.932,22.26,5.932,22.26l19.265,6.215a124.235,124.235,0,0,1,40.008-30.98c26.672-13.522,38.034-15.082,55.816-40.446s15.5-94.615,40.446-175.357,55.344-128.5,43.409-153.521-28.214-51.172-119.369-79.607-118.284-27.294-154.1-6.822C218.65,140.3,219.125,221.5,206.1,285.18s-53.166,121.674-53.166,163.758,19.534,45.48,32.556,72.782S197.43,566.3,197.43,566.3Z" transform="translate(141.067 142.533)"/><path class="p" d="M205.111,553.2c12.373,3.9,4.39,24.118,4.39,24.118,0-.138,20.9,6.356,20.9,6.356s3.955-21.223,17.782-17.082,5.932,22.26,5.932,22.26l19.265,6.215a124.232,124.232,0,0,1,40.008-30.98c26.672-13.522,38.033-15.082,55.816-40.446s15.5-94.615,40.446-175.357S465,219.784,453.063,194.768s-28.214-51.175-119.369-79.607c20.522,6.72,54.259,52.313,49.92,108.036-2.308,25.293-32.663,75.705-43.409,116-15.839,59.4-14.856,110.021-26.81,131.92C279.641,532.914,202.054,552.235,205.111,553.2Z" transform="translate(213.162 155.613)"/></g></g><text class="q" transform="translate(1502 645)"><tspan x="-344.312" y="0">&quot;IF ANYONE SAVED A LIFE IT </tspan><tspan x="-242.163" y="67">WOULD BE AS IF HE </tspan><tspan x="-232.288" y="134">SAVED THE LIFE OF </tspan><tspan x="-299.28" y="201">THE WHOLE HUMANITY&quot;</tspan><tspan x="-147.498" y="268">QURAN 5:32</tspan></text><text class="r" transform="translate(1502 177)"><tspan x="-255.51" y="0">Donate Plasma </tspan><tspan x="-145.862" y="94">Save Life</tspan></text></svg>