<svg xmlns="http://www.w3.org/2000/svg" width="297" height="297" viewBox="0 0 297 297"><defs><style>.a{fill:#f7464c;}.b{fill:#fff;}.c,.e{fill:none;}.c{stroke:#f7464c;stroke-linecap:round;stroke-width:10px;}.d{stroke:none;}</style></defs><g transform="translate(-42 -466)"><g transform="translate(78.197 77.508)"><g transform="translate(-3 1)"><path class="a" d="M170.977,443.492l24.252,34.144s23.933,32.229,0,57.12c-10.211,8.935-24.252,8.3-24.252,8.3s-15-.319-23.295-8.3-17.87-29.677,0-57.12S170.977,443.492,170.977,443.492Z" transform="translate(-56.759 6)"/><path class="b" d="M176.022,534.614h-8.134l-1.439,1.192v13.388l1.346,1.375h8.227v7.445l1.586,1.49h12.585l1.146-1.482v-7.453h8.548l1.663-1.5V536.126l-1.528-1.512h-8.684v-8.084l-1.238-1.489H177.54l-1.518,1.565Z" transform="translate(-68.646 -34.96)"/></g><path class="a" d="M10.892,645.339,28.73,627.5S45.738,606.344,81,624.182,116.675,638.7,139.076,635.8s15.764,14.519,4.978,18.253-37.335,4.563-37.335,4.563-14.1,1.245-17.008,3.734-1.245,5.393,2.074,5.393,7.861-4.469,28.631-3.524,31.344-7.364,31.344-7.364,18.882-16.616-.944-26.435c.378.378,26.623-16.427,26.623-16.427s22.092-11.14,16.8,11.329-27.379,48.715-44.939,58.156-68.73,5.1-82.7,0-22.469-8.875-33.232,0c.264.264-16.918,10.574-16.918,10.574Z" transform="translate(8.911 -70.05)"/></g><g class="c" transform="translate(42 466)"><circle class="d" cx="148.5" cy="148.5" r="148.5"/><circle class="e" cx="148.5" cy="148.5" r="143.5"/></g></g></svg>