<svg xmlns="http://www.w3.org/2000/svg" xmlns:xlink="http://www.w3.org/1999/xlink" width="375" height="382" viewBox="0 0 375 382"><defs><style>.a{fill:#fff;}.a,.c,.m,.n,.o{stroke:#707070;}.b{clip-path:url(#a);}.c{fill:#ffb27e;}.c,.m,.n,.o{stroke-width:0.5px;}.d{fill:#f5824b;}.e{fill:#ffd0b0;}.f{fill:#4d4d4d;}.g{fill:#3c373d;}.h{fill:#666;}.i{fill:#f8f1f1;}.j{fill:#e8e8e8;}.k{fill:#d1caca;}.l{fill:#b8b5b5;}.m{fill:#e6e6e6;}.m,.n,.o{stroke-linecap:round;}.n{fill:#cfcbcb;}.o{fill:#fd0100;}.p{fill:#c80000;}</style><clipPath id="a"><rect class="a" width="375" height="382" transform="translate(23 35)"/></clipPath></defs><g transform="translate(-62 -54)"><g class="b" transform="translate(39 19)"><path class="c" d="M399.383,321.016,380.4,311.6a23.2,23.2,0,0,0-5.992-14.654,71.5,71.5,0,0,0-12.541-10.321L332.32,268.115,280.038,250.89l-44.064,55.155,28.152,17.041-4.547,6.78,32.173,26.2,38.294,8.246s21.682,4.031,30.775-5.314c.175-.183,18.36,8.979,18.36,8.979Z" transform="translate(-38.812 0.012)"/><path class="d" d="M416.714,337.865l-21.757-9.051s7.274-21.2-9.547-37.4c.227.238,19.322,10.958,18.185,24.774.227,0,17.958,9.052,17.958,9.052Z" transform="translate(-62.124 -4.67)"/><path class="d" d="M396.13,373.856l-20.34-9.994s-7.956,13.578-37.507,11.434c-.227-.477,21.822,8.814,38.416-3.1,0,.715,17.731,8.579,17.731,8.579Z" transform="translate(-53.928 -13.041)"/><path class="d" d="M331.067,286.859c.134.141,14.527,9.729,14.527,9.729s-.538,10.29,8.609,23.821c-.134.141-16.678,3.8-25.826,18.751,0-.282-28.112-.708-28.112-.708l-15.2-10.995s-4.035-3.664-8.34-2.819a23.565,23.565,0,0,0-7.4,2.819,12.89,12.89,0,0,1,7.4-5.074c4.708-.987,12.509,4.369,12.509,4.369l13.047,8.314s3.093-3.524,2.825-11.981c0,0,8.877-3.524,8.07-15.5-.134-.423,9.55-2.115,9.953-14.659C323.131,293.2,327.57,291.652,331.067,286.859Z" transform="translate(-44.015 -4.144)"/><path class="d" d="M318.677,278.824l-5.229,3.811L285.489,269.06Z" transform="translate(-46.536 -2.087)"/><path class="d" d="M300.528,297.255l-2.273,3.573-22.731-11.91,1.137-2.621Z" transform="translate(-44.982 -4.079)"/><path class="d" d="M287.635,315.3l-1.591,4.215L259.9,304.269v-2.621Z" transform="translate(-42.544 -5.852)"/><path class="e" d="M272.858,334.238l-5.683,7.384,12.047,9.767s5.229-5.24,1.819-9.767A32.612,32.612,0,0,0,272.858,334.238Z" transform="translate(-43.679 -9.618)"/><path class="d" d="M344.162,269.276l-9.092,1.429-23.186-12.149Z" transform="translate(-50.654 -0.874)"/><path class="f" d="M489.674,427.1l-55.866-33.433,25.118-60.7,30.748,11.455Z" transform="translate(-69.674 -9.472)"/><path class="g" d="M451.484,352.929s9.453,34.993,38.416,54.193c.3.619,0,21.987,0,21.987l-56.442-33.132Z" transform="translate(-69.619 -11.778)"/><path class="h" d="M452.906,331.353l-27.482-12.387L400.9,379.043l27.184,13.01Z" transform="translate(-62.852 -7.853)"/><path class="f" d="M415.188,348.377A61.486,61.486,0,0,0,434.1,381.512c-.3.31-5.614,14.245-5.614,14.245L401.6,382.751Z" transform="translate(-62.962 -11.252)"/><g transform="translate(289.872 54.994) rotate(30)"><g transform="translate(0.983 49.071)"><path class="c" d="M166.3,49.82l-19.019,8.919A21.741,21.741,0,0,1,141.5,73.1a67.871,67.871,0,0,1-12.487,9.942l-29.539,17.68L46.911,116.666,1.227,61.227,29.378,44.965l-4.735-6.8,32.04-25.236,38.59-7.357s21.862-3.535,31.249,5.892c.18.185,18.4-8.5,18.4-8.5Z"/><path class="d" d="M31.679.65,9.841,9.147S17.623,30.256.92,45.921c.225-.23,19.336-10.431,17.912-24.113.23,0,17.994-8.575,17.994-8.575Z" transform="translate(128.325 37.017)"/><path class="d" d="M58.679,8.045,38.293,17.5S29.972,3.915.11,5.421c-.22.467,21.909-8.26,38.938,3.858-.014-.706,17.773-8.113,17.773-8.113Z" transform="translate(88.241 2.061)"/><path class="d" d="M63.515,52.984c.133-.136,14.508-9.316,14.508-9.316s-.748-10.183,8.24-23.37c-.139-.142-16.953-4.106-26.507-19.072.006.279-28.435.116-28.435.116L16.158,11.9s-4.011,3.539-8.384,2.613a25.178,25.178,0,0,1-7.542-2.94,13.78,13.78,0,0,0,7.587,5.17c4.784,1.074,12.572-4.06,12.572-4.06L33.43,4.731s3.2,3.548,3.1,11.9c0,0,9.053,3.668,8.474,15.495-.127.415,9.706,2.289,10.363,14.7C55.358,46.55,59.881,48.174,63.515,52.984Z" transform="translate(29.141 33.183)"/><path class="d" d="M33.662,4.456,28.3.58.269,13.423Z" transform="translate(44.023 87.31)"/><path class="d" d="M25.375,4.051,23,.472.236,11.774l1.2,2.614Z" transform="translate(35.191 71.122)"/><path class="d" d="M28.151,4.742,26.457.543.3,15.071l.052,2.591Z" transform="translate(21.512 54.129)"/><path class="e" d="M6.091,17.073.193,9.655l12-9.405s5.4,5.289,2.034,9.693a30.843,30.843,0,0,1-8.135,7.13Z" transform="translate(27.169 26.468)"/><path class="d" d="M32.694,2.083l-9.23-1.6L.241,12.01Z" transform="translate(66.779 98.369)"/></g><g transform="translate(142.575 2.924)"><path class="f" d="M56.536,1.16.662,33.05,27.284,93.577,58.173,82.888Z" transform="translate(26.399 0.541)"/><path class="g" d="M19.75,75.682s8.873-34.4,37.8-52.775c.287-.606-.436-21.735-.436-21.735L.656,32.756Z" transform="translate(26.107 0.833)"/><path class="h" d="M53.832,61.081,26.266,72.759.258,12.857,27.513.564Z" transform="translate(0.662 33.054)"/><path class="f" d="M14.69,47.121A57.453,57.453,0,0,1,33.172,14.757c-.305-.312-5.964-14.2-5.964-14.2L.258,12.857Z" transform="translate(1.254 32.759)"/></g></g><g transform="translate(238.952 203.592) rotate(180)"><path class="c" d="M163.409,70.126l-18.977-9.42a23.2,23.2,0,0,0-5.992-14.654A71.492,71.492,0,0,0,125.9,35.732L96.346,17.225,44.064,0,0,55.155,28.152,72.2,23.6,78.976l32.173,26.2,38.294,8.246s21.682,4.031,30.775-5.314c.175-.183,18.36,8.979,18.36,8.979Z"/><path class="d" d="M31.3,46.451,9.547,37.4S16.821,16.2,0,0C.227.238,19.322,10.958,18.185,24.774c.227,0,17.958,9.052,17.958,9.052Z" transform="translate(126.124 35.842)"/><path class="d" d="M57.855,9.994,37.51,0S29.554,13.578,0,11.434c-.227-.477,21.822,8.814,38.416-3.1,0,.715,17.731,8.579,17.731,8.579Z" transform="translate(87.185 99.92)"/><path class="d" d="M61.738,0c.134.141,14.527,9.729,14.527,9.729s-.538,10.29,8.609,23.821c-.134.141-16.678,3.8-25.826,18.751,0-.282-28.112-.708-28.112-.708l-15.2-11S11.7,36.932,7.4,37.778A23.565,23.565,0,0,0,0,40.6,12.891,12.891,0,0,1,7.4,35.52c4.708-.987,12.509,4.369,12.509,4.369L32.954,48.2s3.093-3.524,2.825-11.981c0,0,8.877-3.524,8.07-15.5C43.715,20.295,53.4,18.6,53.8,6.059,53.8,6.343,58.241,4.792,61.738,0Z" transform="translate(28.152 31.813)"/><path class="d" d="M33.188,9.767l-5.229,3.811L0,0Z" transform="translate(41.791 16.071)"/><path class="d" d="M25,10.958l-2.273,3.573L0,2.621,1.137,0Z" transform="translate(33.38 31.316)"/><path class="d" d="M27.732,13.651l-1.591,4.215L0,2.621V0Z" transform="translate(20.196 44.893)"/><path class="e" d="M5.683,0,0,7.384l12.047,9.767s5.229-5.24,1.819-9.767A32.612,32.612,0,0,0,5.683,0Z" transform="translate(26.334 73.717)"/><path class="d" d="M32.279,10.72l-9.092,1.429L0,0Z" transform="translate(64.068 6.78)"/><g transform="translate(140.883 60.21)"><path class="i" d="M78.3,107.235,0,60.7,25.118,0,78.3,25.291Z" transform="translate(26.09 12.387)"/><path class="j" d="M18.026,0S22.9,41.942,75.411,61.952c.3.619,1.137,25.488,1.137,25.488L0,43.045Z" transform="translate(25.794 30.038)"/><path class="k" d="M52.009,12.387,24.527,0,0,60.077,27.187,73.083Z"/><path class="l" d="M13.593,0A61.486,61.486,0,0,0,32.506,33.135c-.3.31-5.614,14.245-5.614,14.245L0,34.374Z" transform="translate(0.591 26.013)"/></g></g><g transform="translate(215.162 305.158) rotate(167)"><g transform="translate(0 0)"><path class="c" d="M163.1,68.247l-18.929-9.2a22.612,22.612,0,0,0-5.86-14.557,69.472,69.472,0,0,0-12.469-10.164L96.407,16.173,44.17-.463-.553,55.027,27.5,71.733,22.87,78.545l31.989,25.8,38.3,7.824s21.695,3.794,30.9-5.625c.177-.184,18.315,8.765,18.315,8.765Z"/><path class="d" d="M30.914,46.014,9.2,37.212S16.7,15.984,0,0C.225.235,19.259,10.729,17.981,24.525c.228,0,17.911,8.842,17.911,8.842Z" transform="translate(126.071 34.434)"/><path class="d" d="M57.895,9.363,37.6-.394S29.49,13.236-.113,11.408c-.223-.473,21.787,8.564,38.541-3.492-.007.713,17.688,8.373,17.688,8.373Z" transform="translate(86.395 98.773)"/><path class="d" d="M61.888-.649c.133.139,14.465,9.554,14.465,9.554s-.642,10.272,8.391,23.676c-.136.142-16.757,3.97-26.077,18.979,0-.281-28.173-.411-28.173-.411L15.368,40.337s-4.008-3.613-8.332-2.725A24.177,24.177,0,0,0-.407,40.5,13.284,13.284,0,0,1,7.059,35.36c4.729-1.034,12.5,4.228,12.5,4.228l13,8.158S35.687,44.2,35.5,35.762c0,0,8.934-3.609,8.245-15.553-.13-.42,9.594-2.21,10.124-14.73C53.869,5.763,58.334,4.169,61.888-.649Z" transform="translate(27.901 31.444)"/><path class="d" d="M33.17,9.4l-5.279,3.857L0,0Z" transform="translate(41.731 15.594)"/><path class="d" d="M24.955,10.669l-2.314,3.589L-.026,2.615,1.14-.012Z" transform="translate(33.147 30.893)"/><path class="d" d="M27.663,13.328,26.025,17.55-.026,2.615,0,0Z" transform="translate(19.795 44.577)"/><path class="e" d="M5.7-.06-.074,7.367,11.9,16.985S17.2,11.7,13.826,7.222A31.661,31.661,0,0,0,5.7-.06Z" transform="translate(25.658 73.27)"/><path class="d" d="M32.25,10.356l-9.129,1.522L0,0Z" transform="translate(64.155 6.091)"/></g><g transform="translate(140.621 58.591)"><path class="i" d="M55.058,93.327-.609,60.556,25.179-.264,55.887,10.845Z" transform="translate(26.029 12.084)"/><path class="j" d="M18.07-.189s9.125,34.812,37.966,53.664c.29.615-.22,21.936-.22,21.936L-.432,42.945Z" transform="translate(25.556 29.697)"/><path class="k" d="M52.011,11.812,24.587-.258-.6,59.938,26.52,72.628Z" transform="translate(0 0)"/><path class="l" d="M13.626-.143a59.721,59.721,0,0,0,18.626,32.86c-.3.312-5.771,14.271-5.771,14.271L-.345,34.294Z" transform="translate(0.331 25.946)"/></g></g><path class="m" d="M182.053,317.539l-13.184,46.93,4.319,1.667,13.866-47.407Z" transform="translate(-28.344 -7.689)"/><path class="m" d="M182.053,317.539l-13.184,46.93,4.319,1.667,13.866-47.407Z" transform="translate(-13.463 -2.382)"/><path class="n" d="M190.643,296.381l9.547,3.335,2.728-10.243,3.41,1.191-7.21,24.777s-.318,1.084,1.073,2.169c3.184,2.252,8.57,3.6,10.627,3.837a2.641,2.641,0,0,0,2.785-1.482l7.274-25.25h2.046s2.728-10.482,11.82-15.008,20-5.24,25-16.913,7.394-40.6,15.885-64.668,14.575-39.192,16.166-51.579-19.549-42.4-48.192-50.024-54.328-1.667-65.921,12.387-11.141,45.5-17.958,68.6-15.457,32.4-15.912,50.977,19.322,26.445,14.775,47.88a9.358,9.358,0,0,0,1.772.39l-6.616,24.255a4.1,4.1,0,0,0,1.224,3.481c1.574,1.466,9.443,3.3,9.443,3.3a4.008,4.008,0,0,0,3.322-1.466c1.224-1.65,6.994-25.472,6.994-25.472l3.5.916-2.619,9.9,8.743,3.043,3.147-9.822,5.77,1.833Z" transform="translate(-24.434 18.234)"/><path class="o" d="M175.6,270.348s1.266-6.556,5.5-5.815,2.214,8.538,2.214,8.538l7.488,2.123s1.743-7.353,6.122-5.972,1.554,8.538,1.554,8.538c0-.05,7.4,2.25,7.4,2.25s1.4-7.513,6.295-6.047,2.1,7.88,2.1,7.88l6.82,2.2a43.979,43.979,0,0,1,14.163-10.967c9.442-4.787,13.464-5.339,19.759-14.318s5.486-33.494,14.318-62.077,19.592-45.491,15.367-54.347-9.988-18.115-42.257-28.181-41.873-9.662-54.551-2.415c-11.693,6.684-11.525,35.427-16.135,57.971s-18.821,43.073-18.821,57.971,6.915,16.1,11.525,25.765,4.226,15.781,4.226,15.781Z" transform="translate(-25.858 16.703)"/><path class="p" d="M205.054,270.23c4.38,1.382,1.554,8.538,1.554,8.538,0-.049,7.4,2.25,7.4,2.25s1.4-7.513,6.295-6.047,2.1,7.88,2.1,7.88l6.82,2.2a43.979,43.979,0,0,1,14.163-10.967c9.442-4.787,13.464-5.339,19.759-14.318s5.486-33.494,14.318-62.077,19.592-45.491,15.367-54.347-9.988-18.116-42.257-28.181c7.265,2.379,19.208,18.519,17.672,38.245-.817,8.954-11.563,26.8-15.367,41.063-5.607,21.029-5.259,38.948-9.491,46.7C231.438,263.047,203.972,269.887,205.054,270.23Z" transform="translate(-33.984 15.694)"/></g></g></svg>